<svg width="44" height="36" viewBox="0 0 44 36" fill="none" xmlns="http://www.w3.org/2000/svg">
<rect width="44" height="36" rx="4" fill="#A5A5A5"/>
<path d="M34.25 13.625C34.25 14.6592 34.0463 15.6832 33.6506 16.6386C33.2548 17.5941 32.6747 18.4622 31.9435 19.1935C31.2122 19.9247 30.3441 20.5048 29.3886 20.9006C28.4332 21.2963 27.4092 21.5 26.375 21.5C25.3408 21.5 24.3168 21.2963 23.3614 20.9006C22.4059 20.5048 21.5378 19.9247 20.8065 19.1935C20.0753 18.4622 19.4952 17.5941 19.0994 16.6386C18.7037 15.6832 18.5 14.6592 18.5 13.625C18.5 11.5364 19.3297 9.53338 20.8065 8.05653C22.2834 6.57969 24.2864 5.75 26.375 5.75C28.4636 5.75 30.4666 6.57969 31.9435 8.05653C33.4203 9.53338 34.25 11.5364 34.25 13.625ZM27.25 10.125C27.25 9.89294 27.1578 9.67038 26.9937 9.50628C26.8296 9.34219 26.6071 9.25 26.375 9.25C26.1429 9.25 25.9204 9.34219 25.7563 9.50628C25.5922 9.67038 25.5 9.89294 25.5 10.125V12.75H22.875C22.6429 12.75 22.4204 12.8422 22.2563 13.0063C22.0922 13.1704 22 13.3929 22 13.625C22 13.8571 22.0922 14.0796 22.2563 14.2437C22.4204 14.4078 22.6429 14.5 22.875 14.5H25.5V17.125C25.5 17.3571 25.5922 17.5796 25.7563 17.7437C25.9204 17.9078 26.1429 18 26.375 18C26.6071 18 26.8296 17.9078 26.9937 17.7437C27.1578 17.5796 27.25 17.3571 27.25 17.125V14.5H29.875C30.1071 14.5 30.3296 14.4078 30.4937 14.2437C30.6578 14.0796 30.75 13.8571 30.75 13.625C30.75 13.3929 30.6578 13.1704 30.4937 13.0063C30.3296 12.8422 30.1071 12.75 29.875 12.75H27.25V10.125ZM14.125 9.25H17.8C18.122 8.62233 18.5052 8.039 18.9497 7.5H14.125C12.9647 7.5 11.8519 7.96094 11.0314 8.78141C10.2109 9.60188 9.75 10.7147 9.75 11.875V20.625C9.75 21.1995 9.86316 21.7684 10.083 22.2992C10.3029 22.83 10.6252 23.3123 11.0314 23.7186C11.8519 24.5391 12.9647 25 14.125 25H15V28.3985C14.9999 28.7279 15.0948 29.0504 15.2731 29.3274C15.4515 29.6044 15.7059 29.8241 16.0058 29.9603C16.3058 30.0966 16.6386 30.1435 16.9646 30.0956C17.2905 30.0476 17.5957 29.9068 17.8438 29.69L23.204 25H29.875C30.4495 25 31.0184 24.8868 31.5492 24.667C32.08 24.4471 32.5623 24.1248 32.9686 23.7186C33.3748 23.3123 33.6971 22.83 33.917 22.2992C34.1368 21.7684 34.25 21.1995 34.25 20.625V19.1602C33.7425 19.8795 33.1405 20.5252 32.4598 21.0817C32.3524 21.6893 32.0345 22.2396 31.5618 22.6361C31.0892 23.0326 30.4919 23.25 29.875 23.25H22.546L16.75 28.3215V23.25H14.125C13.4288 23.25 12.7611 22.9734 12.2688 22.4812C11.7766 21.9889 11.5 21.3212 11.5 20.625V11.875C11.5 11.1788 11.7766 10.5111 12.2688 10.0188C12.7611 9.52656 13.4288 9.25 14.125 9.25Z" fill="white"/>
</svg>
